<?xml version="1.0" encoding="UTF-8"?>
<svg id="Layer_1" data-name="Layer 1" xmlns="http://www.w3.org/2000/svg" xmlns:xlink="http://www.w3.org/1999/xlink" viewBox="0 0 249 136.68">
  <defs>
    <style>
      .cls-1 {
        fill: none;
      }

      .cls-2 {
        fill: #8cc756;
      }

      .cls-3 {
        clip-path: url(#clippath);
      }
    </style>
    <clipPath id="clippath">
      <rect class="cls-1" width="249" height="136.68"/>
    </clipPath>
  </defs>
  <path id="Path_292" data-name="Path 292" d="M39.74,42.13v7.12h-11.73v36.89h-8.83v-36.89H7.45v-7.12h32.28Z"/>
  <g id="Group_32" data-name="Group 32">
    <g class="cls-3">
      <g id="Group_31" data-name="Group 31">
        <path id="Path_293" data-name="Path 293" d="M54.87,42.13v27.24c0,2.98.78,5.26,2.33,6.84,1.77,1.66,4.14,2.51,6.56,2.36,2.44.16,4.83-.7,6.62-2.36,1.55-1.58,2.33-3.86,2.33-6.84v-27.24h8.89v27.18c.11,3.33-.73,6.62-2.43,9.49-1.56,2.53-3.81,4.56-6.49,5.83-2.83,1.33-5.92,2-9.05,1.95-3.08.04-6.14-.63-8.92-1.95-2.64-1.28-4.85-3.31-6.34-5.83-1.63-2.89-2.44-6.17-2.33-9.49v-27.18h8.83Z"/>
        <rect id="Rectangle_79" data-name="Rectangle 79" class="cls-2" x="90.11" y="42.13" width="8.83" height="44.01"/>
        <path id="Path_294" data-name="Path 294" d="M145.29,86.14h-8.83l-19.99-30.2v30.2h-8.83v-44.07h8.83l19.99,30.27v-30.27h8.83v44.07Z"/>
        <path id="Path_295" data-name="Path 295" class="cls-2" d="M47.99,92.23v44.01h-8.83v-28.63l-11.79,28.63h-6.68l-11.85-28.63v28.63H0v-44.01h10.02l14,32.72,14-32.73h9.96Z"/>
        <path id="Path_296" data-name="Path 296" class="cls-2" d="M65.51,99.35v11.04h14.82v7h-14.82v11.66h16.71v7.18h-25.54v-44.07h25.54v7.19h-16.71Z"/>
        <rect id="Rectangle_80" data-name="Rectangle 80" class="cls-2" x="90.23" y="92.23" width="8.83" height="44.01"/>
        <path id="Path_297" data-name="Path 297" class="cls-2" d="M114.66,135.1c-2.33-.95-4.34-2.52-5.83-4.54-1.45-2.04-2.23-4.49-2.21-7h9.46c.04,1.63.74,3.17,1.92,4.29,1.33,1.11,3.03,1.68,4.76,1.58,1.74.1,3.47-.42,4.85-1.48,1.16-.95,1.81-2.38,1.77-3.88.04-1.19-.39-2.35-1.2-3.21-.84-.87-1.86-1.55-2.99-1.99-1.62-.62-3.27-1.16-4.95-1.61-2.38-.67-4.71-1.5-6.97-2.49-1.82-.84-3.4-2.12-4.6-3.72-1.37-1.94-2.05-4.28-1.92-6.65-.06-2.42.63-4.79,1.96-6.81,1.36-1.98,3.27-3.53,5.49-4.45,2.55-1.07,5.3-1.59,8.07-1.54,4.54,0,8.23,1.1,11.07,3.31,2.85,2.23,4.57,5.62,4.7,9.24h-9.71c-.06-1.47-.77-2.84-1.92-3.75-1.36-1.04-3.05-1.57-4.76-1.48-1.49-.08-2.96.39-4.13,1.32-1.07.98-1.64,2.4-1.54,3.85-.03,1.1.39,2.16,1.17,2.93.83.81,1.82,1.46,2.9,1.89,1.16.48,2.78,1.04,4.89,1.67,2.39.67,4.73,1.51,7,2.52,1.84.87,3.44,2.16,4.66,3.78,1.38,1.92,2.07,4.26,1.96,6.62.01,2.31-.62,4.58-1.83,6.56-1.29,2.08-3.15,3.76-5.36,4.82-2.61,1.26-5.49,1.87-8.39,1.8-2.84.04-5.66-.49-8.29-1.58"/>
        <path id="Path_298" data-name="Path 298" class="cls-2" d="M176.11,92.23v7.12h-11.73v36.89h-8.83v-36.89h-11.73v-7.12h32.29Z"/>
        <path id="Path_299" data-name="Path 299" class="cls-2" d="M191.37,99.35v11.04h14.82v7h-14.82v11.66h16.71v7.18h-25.54v-44.07h25.54v7.19h-16.71Z"/>
        <path id="Path_300" data-name="Path 300" class="cls-2" d="M238.78,136.24l-9.71-17.15h-4.16v17.15h-8.83v-44.01h16.52c3-.08,5.98.53,8.7,1.8,2.24,1.05,4.11,2.74,5.39,4.85,1.21,2.08,1.83,4.44,1.8,6.84.03,2.82-.86,5.57-2.52,7.85-1.85,2.44-4.51,4.15-7.5,4.82l10.52,17.84h-10.21ZM224.91,112.47h7.38c2.39,0,4.18-.58,5.36-1.73,1.23-1.29,1.87-3.04,1.77-4.82.11-1.75-.54-3.46-1.77-4.7-1.18-1.11-2.96-1.67-5.36-1.67h-7.38v12.93Z"/>
        <rect id="Rectangle_81" data-name="Rectangle 81" class="cls-2" x="89.97" y="84.86" width="9.13" height="9.49"/>
        <path id="Path_301" data-name="Path 301" class="cls-2" d="M113.71,20.33c1-6.42-2.27-14.47-5.87-19.72-.17-.25-.3-.54-.63-.62-.15.32-.22.69-.37,1.01.48.04.26.7.2.95-1.7,6.26-8.54,9.71-12.82,14.15-3.57,3.52-5.89,8.12-6.59,13.08-.03.16-.02.32.02.47.13.28,1.45,2.77,1.69,2.64,1.24-7.69,6.62-13.67,13.34-17.17.24-.12.4-.33.7-.14-1.44,1.82-3.22,3.28-4.69,5.09-3.23,4-5.47,8.7-6.53,13.73.72.31,1.47.55,2.23.71.02-.04.06-.08.1-.11,9.59.99,17.68-4.23,19.22-14.08"/>
        <path id="Path_302" data-name="Path 302" class="cls-2" d="M94.22,16.1c4.28-4.44,11.12-7.89,12.82-14.15.07-.25.28-.91-.2-.95-2.34,4.71-6.89,5.73-11.05,8.22-7.27,4.34-11.65,11.63-8.16,19.96.7-4.96,3.02-9.56,6.59-13.08"/>
      </g>
    </g>
  </g>
</svg>